<svg width="10" height="8" viewBox="0 0 10 8" fill="none" xmlns="http://www.w3.org/2000/svg">
<path d="M8.42583 0.273323C8.59702 0.100078 8.82964 0.00182135 9.07286 2.50664e-05C9.31608 -0.00177122 9.55013 0.0930393 9.72384 0.263736C9.89755 0.434433 9.99681 0.667136 9.99992 0.91099C10.003 1.15484 9.90975 1.39002 9.74045 1.56511L4.84188 7.7052C4.75772 7.79604 4.65617 7.86896 4.54329 7.91958C4.43041 7.9702 4.30851 7.9975 4.18488 7.99984C4.06124 8.00217 3.9384 7.97951 3.8237 7.93319C3.70899 7.88687 3.60477 7.81786 3.51726 7.73026L0.269457 4.47509C0.0968681 4.30196 -5.85615e-05 4.06718 2.65451e-08 3.8224C5.86146e-05 3.57761 0.0970976 3.34288 0.26977 3.16983C0.442442 2.99678 0.676602 2.8996 0.920739 2.89966C1.16487 2.89972 1.39899 2.99701 1.57158 3.17014L4.14021 5.74621L8.40146 0.302141C8.40921 0.292235 8.41755 0.282819 8.42646 0.273949L8.42583 0.273323Z" fill="white"/>
</svg>
