<svg width="20" height="20" viewBox="0 0 20 20" fill="none" xmlns="http://www.w3.org/2000/svg">
<path d="M7.52729 18.6C7.96912 18.6 8.32729 18.2418 8.32729 17.8C8.32729 17.3582 7.96912 17 7.52729 17C7.08547 17 6.72729 17.3582 6.72729 17.8C6.72729 18.2418 7.08547 18.6 7.52729 18.6Z" stroke="#9B9B9B" stroke-width="2" stroke-linecap="round" stroke-linejoin="round"/>
<path d="M16.5273 18.6C16.9691 18.6 17.3273 18.2418 17.3273 17.8C17.3273 17.3582 16.9691 17 16.5273 17C16.0855 17 15.7273 17.3582 15.7273 17.8C15.7273 18.2418 16.0855 18.6 16.5273 18.6Z" stroke="#9B9B9B" stroke-width="2" stroke-linecap="round" stroke-linejoin="round"/>
<path d="M1 1H4.27273L6.46545 11.9555C6.54027 12.3321 6.7452 12.6705 7.04436 12.9113C7.34351 13.1522 7.71784 13.2801 8.10182 13.2727H16.0545C16.4385 13.2801 16.8129 13.1522 17.112 12.9113C17.4112 12.6705 17.6161 12.3321 17.6909 11.9555L19 5.09091H5.09091" stroke="#9B9B9B" stroke-width="2" stroke-linecap="round" stroke-linejoin="round"/>
</svg>
