<svg width="30" height="30" viewBox="0 0 30 30" fill="none" xmlns="http://www.w3.org/2000/svg">
<rect width="30" height="30" rx="8" fill="url(#paint0_linear_60_200)"/>
<g clip-path="url(#clip0_60_200)">
<g filter="url(#filter0_d_60_200)">
<path d="M18.4258 11.2733C18.597 11.1001 18.8296 11.0018 19.0729 11C19.3161 10.9982 19.5501 11.093 19.7238 11.2637C19.8976 11.4344 19.9968 11.6671 19.9999 11.911C20.003 12.1548 19.9097 12.39 19.7404 12.5651L14.8419 18.7052C14.7577 18.796 14.6562 18.869 14.5433 18.9196C14.4304 18.9702 14.3085 18.9975 14.1849 18.9998C14.0612 19.0022 13.9384 18.9795 13.8237 18.9332C13.709 18.8869 13.6048 18.8179 13.5173 18.7303L10.2695 15.4751C10.0969 15.302 9.99994 15.0672 10 14.8224C10.0001 14.5776 10.0971 14.3429 10.2698 14.1698C10.4424 13.9968 10.6766 13.8996 10.9207 13.8997C11.1649 13.8997 11.399 13.997 11.5716 14.1701L14.1402 16.7462L18.4015 11.3021C18.4092 11.2922 18.4176 11.2828 18.4265 11.2739L18.4258 11.2733Z" fill="white"/>
</g>
</g>
<defs>
<filter id="filter0_d_60_200" x="10" y="11" width="10" height="10" filterUnits="userSpaceOnUse" color-interpolation-filters="sRGB">
<feFlood flood-opacity="0" result="BackgroundImageFix"/>
<feColorMatrix in="SourceAlpha" type="matrix" values="0 0 0 0 0 0 0 0 0 0 0 0 0 0 0 0 0 0 127 0" result="hardAlpha"/>
<feOffset dy="2"/>
<feColorMatrix type="matrix" values="0 0 0 0 0 0 0 0 0 0 0 0 0 0 0 0 0 0 0.1 0"/>
<feBlend mode="normal" in2="BackgroundImageFix" result="effect1_dropShadow_60_200"/>
<feBlend mode="normal" in="SourceGraphic" in2="effect1_dropShadow_60_200" result="shape"/>
</filter>
<linearGradient id="paint0_linear_60_200" x1="15" y1="0" x2="15" y2="30" gradientUnits="userSpaceOnUse">
<stop stop-color="#89F09C"/>
<stop offset="1" stop-color="#3CC755"/>
</linearGradient>
<clipPath id="clip0_60_200">
<rect width="10" height="11" fill="white" transform="translate(10.0001 10)"/>
</clipPath>
</defs>
</svg>
