<svg width="20" height="18" viewBox="0 0 20 18" fill="none" xmlns="http://www.w3.org/2000/svg">
<path d="M14.4731 0C16.0343 0 17.3458 0.521739 18.4075 1.56522C19.4692 2.6087 20 3.88235 20 5.38619C20 6.12276 19.8439 6.86701 19.5316 7.61893C19.2194 8.37084 18.8759 9.03836 18.5012 9.62148C18.1265 10.2046 17.4941 10.9565 16.6042 11.8772C15.7143 12.798 14.9649 13.5422 14.356 14.11C13.7471 14.6777 12.7713 15.5448 11.4286 16.711L9.97658 18L8.52459 16.757C7.21311 15.5601 6.24512 14.6777 5.62061 14.11C4.9961 13.5422 4.23888 12.798 3.34895 11.8772C2.45902 10.9565 1.8267 10.2046 1.45199 9.62148C1.07728 9.03836 0.741608 8.37084 0.444965 7.61893C0.148322 6.86701 0 6.12276 0 5.38619C0 3.88235 0.530835 2.6087 1.59251 1.56522C2.65418 0.521739 3.95004 0 5.48009 0C7.29118 0 8.79001 0.690537 9.97658 2.07161C11.1632 0.690537 12.662 0 14.4731 0ZM10.0703 15.2839C11.6003 13.9335 12.7166 12.9284 13.4192 12.2685C14.1218 11.6087 14.8946 10.8184 15.7377 9.8977C16.5808 8.97698 17.1663 8.17136 17.4941 7.48082C17.822 6.79028 17.9859 6.09207 17.9859 5.38619C17.9859 4.40409 17.6503 3.59079 16.9789 2.94629C16.3076 2.30179 15.4723 1.97954 14.4731 1.97954C13.7237 1.97954 13.0133 2.19437 12.3419 2.62404C11.6706 3.05371 11.1944 3.60614 10.9133 4.28133H9.03981C8.79001 3.60614 8.32943 3.05371 7.65808 2.62404C6.98673 2.19437 6.26073 1.97954 5.48009 1.97954C4.48087 1.97954 3.6534 2.30179 2.99766 2.94629C2.34192 3.59079 2.01405 4.40409 2.01405 5.38619C2.01405 6.09207 2.17018 6.79028 2.48244 7.48082C2.79469 8.17136 3.38017 8.97698 4.23888 9.8977C5.09758 10.8184 5.87822 11.6087 6.5808 12.2685C7.28337 12.9284 8.38407 13.9335 9.8829 15.2839L9.97658 15.376L10.0703 15.2839Z" fill="#9B9B9B"/>
</svg>
